<svg xmlns="http://www.w3.org/2000/svg" viewBox="0 0 958 871"><path fill="#fbfb9b" stroke="#fbfb9b" d="M692 16.569c-15.675 9.107-35.925 20.963-45 26.347-9.075 5.384-33.375 19.594-54 31.579-20.625 11.984-49.875 29-65 37.813a23679.321 23679.321 0 0 1-56 32.504c-15.675 9.064-38.175 22.209-50 29.21-11.825 7.001-28.925 16.998-38 22.217-9.075 5.218-26.4 15.245-38.5 22.282-12.1 7.036-35.95 20.881-53 30.766-17.05 9.885-43.375 25.276-58.5 34.202-15.125 8.925-44.825 26.258-66 38.517-31.544 18.263-113.647 66.075-155.783 90.72l-9.284 5.43 1.902 3.172c6.932 11.563 17.164 29.66 17.159 30.348-.003.453-4.782 3.524-10.62 6.824-5.838 3.3-10.8 6.475-11.027 7.056-.391 1.002 55.625 98.638 58.017 101.125.625.649 7.851 2.347 16.059 3.772 72.053 12.517 111.919 41.541 121.855 88.717l2.061 9.788-2.754 10.271c-1.515 5.649-5.676 17.603-9.247 26.565l-6.492 16.293 4.494 7.627 4.494 7.626-2.512 7.08c-1.382 3.894-4.279 11.15-6.436 16.125l-3.924 9.045 29.477 50.441c16.212 27.742 29.931 50.592 30.487 50.778 1.128.376 22.209-11.708 118.574-67.963 36.3-21.191 94.125-54.868 128.5-74.839 64.827-37.661 87.876-51.112 126-73.528 12.375-7.277 39.15-22.794 59.5-34.482 20.35-11.688 43.975-25.418 52.5-30.511 13.194-7.883 78.604-46.026 159.5-93.012 11.55-6.709 28.2-16.453 37-21.655 8.8-5.202 20.617-12.064 26.26-15.249 5.642-3.186 10.429-6.079 10.637-6.431.207-.351-3.837-7.839-8.988-16.639-5.15-8.8-9.367-16.45-9.37-17-.003-.55 4.976-3.868 11.063-7.373 8.132-4.682 10.953-6.804 10.636-8-.314-1.186-56.951-99.386-58.164-100.849-.101-.121-6.777-1.147-14.836-2.278-74.716-10.49-118.578-38.991-128.268-83.347-1.626-7.444-1.624-8.19.044-14.5 2.806-10.623 9.253-27.629 15.695-41.405l5.964-12.752-4.686-8.124c-5.632-9.763-5.683-9.221 2.509-26.545l6.086-12.869-29.64-50.729C736.14 22.828 722.284.002 721.651.005c-.633.002-13.976 7.456-29.651 16.564" fill-rule="evenodd"/><path fill="#848483" stroke="#848483" d="M389.769 256.332C229.317 349.924 98.03 426.727 98.019 427.005c-.078 2.05 32.872 56.475 34.136 56.382 1.06-.078 581.573-337.57 584.597-339.867.624-.474-33.363-57.422-34.252-57.391-.55.019-132.279 76.61-292.731 170.203m376.387-121.245a267.267 267.267 0 0 1-2.563 6.346c-4.463 10.675-9.656 36.528-10.157 50.567-.581 16.283.252 18.349 3.235 8.016 3.422-11.853 8.798-25.836 14.959-38.913 6.396-13.575 6.239-11.395 1.418-19.644-5.142-8.8-5.753-9.365-6.892-6.372m-107.611 95.144c-24.356 8.841-33.075 29.979-21.663 52.519 9.393 18.551 22.168 23.325 48.596 18.162 11.38-2.223 14.403-2.031 17.547 1.113 8.361 8.361-8.455 19.374-17.701 11.594l-2.83-2.381-11.247 6.602c-6.186 3.631-11.247 7.152-11.247 7.824 0 .672 2.516 3.94 5.591 7.261 12.391 13.384 28.079 16.45 43.895 8.578 22.354-11.126 29.066-29.32 18.709-50.718-9.895-20.442-23.042-26.002-48.403-20.467-11.027 2.406-15.34 2.225-18.337-.773-4.459-4.458-2.141-10.016 5.255-12.594 3.112-1.084 5.319-.409 10.29 3.148 1.738 1.244 23-10.581 23-12.792 0-2.448-11.771-13.293-17.142-15.793-5.897-2.745-18.46-3.408-24.313-1.283M582.8 276.409c-17.985 10.5-32.991 19.397-33.347 19.772-.747.785 13.642 26.753 14.845 26.793.439.014 5.366-2.675 10.949-5.975 5.583-3.301 10.454-5.664 10.825-5.25.371.413 10.004 16.951 21.407 36.751 11.403 19.8 21.022 36.31 21.377 36.688.457.489 21.48-11.05 24.895-13.665.139-.106-9.143-16.166-20.624-35.689-11.482-19.524-21.353-36.388-21.936-37.476-.956-1.788-.099-2.536 8.86-7.739 5.455-3.168 10.186-6.194 10.514-6.724.541-.875-10.652-21.2-13.759-24.986-1.159-1.411-4.999.566-34.006 17.5m-69.3 40.687c-15.95 9.288-28.955 17.462-28.9 18.164.077.981 56.583 99.072 57.939 100.579.442.49 60.365-34.214 60.417-34.99.059-.873-11.961-22.037-13.356-23.516-.826-.875-5.46 1.426-18.6 9.238-9.625 5.721-17.725 10.403-18 10.404-.532.001-9-14.307-9-15.206 0-.292 6.3-4.222 14-8.734s14-8.639 14-9.172c0-.777-11.387-21.325-12.605-22.747-.181-.211-6.531 3.164-14.112 7.5s-14.233 7.996-14.783 8.134c-.909.226-7.52-10-7.485-11.58.008-.368 7.627-5.145 16.931-10.613 13.658-8.028 16.755-10.247 16.076-11.516-1.01-1.888-13.141-22.479-13.365-22.687-.086-.08-13.207 7.454-29.157 16.742m-51 29.568c-7.15 4.189-13.202 7.792-13.448 8.007-.246.215-.696 10.329-1 22.476l-.552 22.084-9.388-15.865c-5.163-8.726-9.526-16.029-9.696-16.228-.929-1.095-24.324 13.494-23.832 14.862 1.325 3.686 57.904 100 58.744 100 1.26 0 23.672-13.041 23.672-13.774 0-.316-4.124-7.542-9.165-16.058-8.859-14.968-9.157-15.669-8.939-21.053.124-3.063.342-5.686.484-5.829.143-.142 9.409 6.47 20.591 14.693 11.183 8.223 20.602 14.803 20.931 14.621 17.279-9.542 27.089-16.029 25.919-17.139-.727-.689-15.496-11.251-32.821-23.472-17.325-12.221-31.571-22.281-31.658-22.355-.087-.073.715-11.159 1.781-24.634 1.067-13.475 1.813-25.277 1.658-26.226-.228-1.404-2.707-.304-13.281 5.89M546 522.146c-160.325 93.402-291.838 169.829-292.25 169.838-1.659.036-.127 3.001 15.352 29.721 17.924 30.94 17.306 30.016 19.106 28.575.71-.57 132.017-77.189 291.792-170.265 159.775-93.076 290.791-169.518 291.148-169.872.605-.601-30.872-55.399-32.776-57.059-.479-.418-132.047 75.659-292.372 169.062M365.772 401.283c-32.417 11.343-37.44 45.836-12.264 84.222 18.003 27.45 40.483 37.37 61.771 27.26 22.46-10.666 29.213-31.631 18.527-57.515-1.646-3.988-3.138-7.25-3.316-7.25-1.102 0-22.49 13.235-22.49 13.917 0 .461.675 2.454 1.5 4.429 5.217 12.486-4.279 23.684-16.218 19.124-10.707-4.089-27.287-30.08-27.28-42.765.006-13.526 15.285-18.114 24.682-7.412l2.98 3.394 10.918-6.347c6.005-3.491 11.045-6.726 11.2-7.189.155-.462-2.784-4.398-6.531-8.746-12.754-14.799-28.626-20.319-43.479-15.122m556.68 24.039c-6.077 3.472-17.102 9.937-24.5 14.368-16.022 9.595-106.504 62.286-140.452 81.791-13.2 7.584-32.55 18.843-43 25.021-10.45 6.177-45.55 26.664-78 45.525-32.45 18.861-64.4 37.532-71 41.49-6.6 3.959-25.5 14.976-42 24.484-44.023 25.366-121.028 70.108-136 79.019-19.645 11.692-120.591 70.408-138.955 80.824-4.925 2.793-9.015 4.984-9.087 4.868-.073-.117-11.306-19.484-24.963-43.039l-24.831-42.826-3.319 9.326c-1.825 5.13-4.704 12.52-6.399 16.422l-3.081 7.095 24.198 41.405a63507.045 63507.045 0 0 0 29.571 50.562l5.373 9.156 22.746-13.021c12.511-7.161 28.597-16.512 35.747-20.779 12.29-7.335 85.771-50.154 196.5-114.507 64.732-37.621 93.304-54.298 116.5-68.001 10.45-6.174 35.65-20.792 56-32.485 20.35-11.693 43.975-25.42 52.5-30.505 8.525-5.084 39.35-23.109 68.5-40.055a68621.705 68621.705 0 0 0 97.5-56.8c24.475-14.293 50.7-29.557 58.278-33.919l13.777-7.931-3.015-5.155a3996.027 3996.027 0 0 1-9.778-16.894c-3.719-6.456-6.987-11.741-7.262-11.745-.275-.003-5.472 2.835-11.548 6.306m-624.89 17.185c-6.016 3.558-11.313 6.844-11.771 7.302-.62.62 47.227 84.765 56.808 99.907l1.402 2.216 11.25-6.554c6.187-3.604 11.645-6.932 12.13-7.396.783-.75-57.116-101.818-58.381-101.909-.275-.02-5.422 2.875-11.438 6.434M12.5 458.575c-6.05 3.548-11.135 6.85-11.299 7.337-.275.811 55.924 98.525 57.752 100.414.44.455 6.818 1.868 14.173 3.14 73.11 12.649 114.287 42.222 123.73 88.862 2.331 11.513 2.545 11.438 4.488-1.579C212.526 581.835 167.74 534.435 73 520.915c-5.03-.718-9.164-1.867-10.127-2.814-.894-.881-10.04-16.113-20.323-33.851-10.282-17.738-18.775-32.222-18.873-32.189-.097.034-5.127 2.965-11.177 6.514m232.33 14.71c-17.969 10.568-32.975 19.522-33.348 19.897-.652.654 13.05 25.411 14.591 26.363.414.256 4.727-1.83 9.584-4.636 4.858-2.805 9.577-5.499 10.486-5.986 1.391-.744 5.122 5.066 23.419 36.467l21.765 37.351 11.547-6.751c6.35-3.713 11.69-7.182 11.866-7.709.175-.526-9.345-17.553-21.157-37.836l-21.476-36.879 10.476-6.033c7.347-4.231 10.362-6.498 10.091-7.591-.351-1.414-14.575-25.99-14.995-25.907-.098.02-14.881 8.682-32.849 19.25" fill-rule="evenodd"/><path fill="#040404" stroke="#040404" d="M646 107.425c-20.075 11.736-151.25 88.243-291.5 170.016S99.218 426.43 98.872 426.81c-.75.825 31.676 56.69 32.905 56.69 2.836 0 584.194-340.135 583.679-341.493-.587-1.548-32.529-56.042-32.803-55.963-.084.024-16.578 9.645-36.653 21.381m13.5 122.9c-23.879 7.889-33.488 29.262-22.816 50.751 9.775 19.683 20.671 24.476 45.519 20.022 18.382-3.295 22.797-2.156 22.797 5.886 0 8.589-13.658 13.358-20.025 6.991-1.086-1.086-2.212-1.975-2.502-1.975-.883 0-21.465 12.179-21.974 13.002-.261.422 1.367 3.08 3.617 5.906 15.537 19.514 41.622 19.183 60.088-.762 10.607-11.456 11.406-24.084 2.627-41.48-9.002-17.837-23.065-23.57-44.831-18.276-14.152 3.441-23 1.535-23-4.956 0-7.843 9.152-11.856 16.173-7.091l3.452 2.342 9.765-5.719c13.063-7.652 12.659-6.718 6.005-13.906-9.635-10.407-23.229-14.589-34.895-10.735M583 276.631c-17.325 10.135-32.049 18.762-32.721 19.171-1.296.791 13.213 27.581 14.545 26.857.372-.202 5.04-2.949 10.373-6.105 5.334-3.155 10.12-5.476 10.637-5.157.517.32 9.969 16.223 21.005 35.342s20.693 35.616 21.459 36.66c1.33 1.813 1.925 1.587 13.07-4.971 8.632-5.08 11.523-7.27 11.09-8.4-.322-.84-10.007-17.594-21.522-37.23C619.421 313.162 610 296.87 610 296.593c0-.276 4.745-3.276 10.544-6.665 5.799-3.39 10.412-6.466 10.25-6.836-1.945-4.451-14.546-25.018-15.294-24.962-.55.041-15.175 8.366-32.5 18.501m-69.5 40.862c-15.4 9.022-28.356 16.545-28.791 16.719-.926.369 56.897 100.128 58.323 100.621.53.183 14.224-7.398 30.432-16.846l29.468-17.177-2.995-5.155a763.37 763.37 0 0 1-6.716-11.898c-2.046-3.709-4.085-6.747-4.529-6.75-.445-.004-8.45 4.493-17.79 9.993s-17.367 10-17.839 10c-.471 0-2.899-3.465-5.395-7.701-4.099-6.954-4.375-7.811-2.853-8.829.927-.62 7.31-4.418 14.185-8.439 6.875-4.021 12.667-7.452 12.871-7.626.205-.173-.741-2.247-2.102-4.61-1.361-2.362-4.348-7.536-6.637-11.496l-4.163-7.201-14.511 8.376c-16.405 9.47-13.862 9.497-19.851-.209l-2.614-4.236 3.754-2.352c2.064-1.294 9.378-5.644 16.253-9.666s12.893-7.66 13.373-8.085c.867-.767-11.979-23.967-13.223-23.881-.357.025-13.25 7.427-28.65 16.448m-51.25 29.685L449 355.06l-.003 6.72c-.002 3.696-.298 13.806-.657 22.467l-.653 15.747-9.855-16.428-9.855-16.429-11.907 6.985-11.907 6.985 8.528 14.696c4.69 8.084 17.785 30.672 29.1 50.197 11.314 19.525 20.705 35.678 20.868 35.895.22.292 22.464-12.054 24.111-13.383.148-.12-4.046-7.495-9.319-16.389l-9.589-16.171.684-5.476c.377-3.012.911-5.476 1.188-5.476.278 0 9.103 6.369 19.613 14.153 10.51 7.784 19.794 14.314 20.631 14.511.837.196 7.477-3.159 14.755-7.457l13.234-7.813-32.984-23.3c-25.852-18.262-32.982-23.764-32.98-25.447.001-1.181.905-12.906 2.008-26.056 1.102-13.15 1.889-23.995 1.747-24.102-.142-.106-6.22 3.354-13.508 7.689m83.093 175.668C385.206 616.156 254.104 692.95 254.005 693.5c-.099.55 7.131 13.656 16.067 29.124l16.246 28.124 15.091-8.77c115.68-67.233 568.304-331.292 568.917-331.905.972-.971-31.354-57.054-32.826-56.952-.55.039-132.021 76.415-292.157 169.725M366.366 401.379c-31.651 10.27-37.382 44.179-13.877 82.121 19.881 32.093 48.256 41.348 71.942 23.464 13.755-10.385 17.676-30.866 9.612-50.214-1.776-4.262-3.486-7.75-3.799-7.75-.706 0-22.244 12.074-22.244 12.469 0 .158.675 1.902 1.5 3.877 5.886 14.087-5.39 26.342-18.216 19.799-10.33-5.27-24.979-29.531-25.541-42.3-.592-13.472 15.196-18.619 24.959-8.136l3.202 3.438 10.548-6.166c5.801-3.39 10.548-6.803 10.548-7.584 0-3.061-15.092-17.317-21.864-20.652-7.619-3.753-19.312-4.786-26.77-2.366m-69.186 41.658c-6.226 3.699-11.354 7.042-11.396 7.429-.132 1.208 57.67 100.458 58.528 100.497.615.028 22.132-12.287 23.439-13.415.281-.243-57.67-99.711-58.635-100.642-.339-.327-5.71 2.433-11.936 6.131M245 473.59a65877.374 65877.374 0 0 1-32.732 19.251c-1.321.77 13.011 26.833 14.556 26.471.441-.103 5.213-2.734 10.605-5.847 8.135-4.697 10.019-5.431 11.067-4.313.694.741 10.382 17.098 21.527 36.348 11.145 19.25 20.604 35.381 21.018 35.848.553.621 21.218-10.57 23.797-12.887.186-.167-9.377-16.957-21.25-37.31C281.715 510.797 272 493.936 272 493.681c0-.254 4.725-3.219 10.5-6.588s10.5-6.3 10.5-6.513c0-1.062-14.761-24.996-15.566-25.24-.514-.156-15.109 8.057-32.434 18.25" fill-rule="evenodd"/></svg>